<svg width="102" height="102" viewBox="0 0 102 102" fill="none" xmlns="http://www.w3.org/2000/svg">
<g filter="url(#filter0_dd_57_353)">
<circle cx="51" cy="41" r="35" fill="white"/>
</g>
<circle opacity="0.3" cx="51" cy="41" r="35" fill="#925CB4"/>
<path d="M50.1035 56.57C51.8262 56.57 53.4222 56.1647 54.8915 55.354C56.3609 54.5307 57.5452 53.4287 58.4445 52.048C59.3439 50.6547 59.7935 49.0967 59.7935 47.374C59.7935 45.6513 59.4199 44.125 58.6725 42.795C57.9379 41.4523 56.9119 40.401 55.5945 39.641C54.2899 38.8683 52.7762 38.482 51.0535 38.482C50.4582 38.482 49.8249 38.558 49.1535 38.71C48.4822 38.862 47.8425 39.1027 47.2345 39.432L47.6145 33.466H57.9695V28.64H43.0355L42.1995 43.194L46.5695 44.524C46.8735 44.2327 47.3295 43.9287 47.9375 43.612C48.5455 43.2827 49.3309 43.118 50.2935 43.118C51.0789 43.118 51.7945 43.308 52.4405 43.688C53.0992 44.068 53.6185 44.581 53.9985 45.227C54.3912 45.873 54.5875 46.5887 54.5875 47.374C54.5875 48.1593 54.3912 48.875 53.9985 49.521C53.6185 50.167 53.0992 50.68 52.4405 51.06C51.7945 51.44 51.0789 51.63 50.2935 51.63C49.4069 51.63 48.5645 51.345 47.7665 50.775C46.9685 50.205 46.4429 49.4387 46.1895 48.476L41.2115 49.806C41.5915 51.1487 42.2185 52.3267 43.0925 53.34C43.9665 54.3533 45.0052 55.145 46.2085 55.715C47.4245 56.285 48.7229 56.57 50.1035 56.57Z" fill="#925CB4"/>
<defs>
<filter id="filter0_dd_57_353" x="0" y="0" width="102" height="102" filterUnits="userSpaceOnUse" color-interpolation-filters="sRGB">
<feFlood flood-opacity="0" result="BackgroundImageFix"/>
<feColorMatrix in="SourceAlpha" type="matrix" values="0 0 0 0 0 0 0 0 0 0 0 0 0 0 0 0 0 0 127 0" result="hardAlpha"/>
<feOffset dy="10"/>
<feGaussianBlur stdDeviation="8"/>
<feColorMatrix type="matrix" values="0 0 0 0 0 0 0 0 0 0 0 0 0 0 0 0 0 0 0.1 0"/>
<feBlend mode="normal" in2="BackgroundImageFix" result="effect1_dropShadow_57_353"/>
<feColorMatrix in="SourceAlpha" type="matrix" values="0 0 0 0 0 0 0 0 0 0 0 0 0 0 0 0 0 0 127 0" result="hardAlpha"/>
<feOffset dy="4"/>
<feGaussianBlur stdDeviation="3"/>
<feColorMatrix type="matrix" values="0 0 0 0 0 0 0 0 0 0 0 0 0 0 0 0 0 0 0.06 0"/>
<feBlend mode="normal" in2="effect1_dropShadow_57_353" result="effect2_dropShadow_57_353"/>
<feBlend mode="normal" in="SourceGraphic" in2="effect2_dropShadow_57_353" result="shape"/>
</filter>
</defs>
</svg>
