<svg width="104" height="34" viewBox="0 0 104 34" fill="none" xmlns="http://www.w3.org/2000/svg">
<path d="M88.9194 12.7495H93.4966V28.9303H89.8757C89.3475 28.9303 88.9194 29.3585 88.9194 29.8866C88.9194 31.2869 87.7841 32.4222 86.3837 32.4222H62.8657V28.9301V12.1134C62.8657 10.5284 64.1507 9.24341 65.7357 9.24341H83.7953C85.0126 9.24341 86.1741 9.75426 86.9968 10.6517L88.9194 12.7495Z" fill="#F2A077"/>
<path d="M88.9194 25.0581C88.9194 24.53 89.3475 24.1018 89.8757 24.1018H93.4966V28.9303H89.8757C89.3475 28.9303 88.9194 29.3585 88.9194 29.8866C88.9194 31.2869 87.7841 32.4222 86.3837 32.4222H62.8657V28.9301V27.5935H86.3839C87.7843 27.5937 88.9194 26.4585 88.9194 25.0581Z" fill="#D6774D"/>
<path d="M102.476 32.4362H95.1673C94.2445 32.4362 93.4966 31.6881 93.4966 30.7653V10.9143C93.4966 9.99151 94.2447 9.24341 95.1673 9.24341H102.476V32.4362Z" fill="#75DC5E"/>
<path d="M93.4966 25.6931V30.7654C93.4966 31.6882 94.2447 32.4363 95.1675 32.4363H102.476V27.364H95.1673C94.2445 27.3638 93.4966 26.6159 93.4966 25.6931Z" fill="#2AAD52"/>
<path d="M58.3968 6.15393H65.3945C67.208 6.15393 68.678 7.62394 68.678 9.43744C68.678 11.2509 67.208 12.721 65.3945 12.721H58.3968C56.5833 12.721 55.1133 11.2509 55.1133 9.43744C55.1133 7.62394 56.5835 6.15393 58.3968 6.15393Z" fill="#E88E6B"/>
<path d="M57.5892 12.7208H64.5868C66.4003 12.7208 67.8704 14.1908 67.8704 16.0043C67.8704 17.8178 66.4003 19.2879 64.5868 19.2879H57.5892C55.7757 19.2879 54.3057 17.8178 54.3057 16.0043C54.3057 14.1908 55.7759 12.7208 57.5892 12.7208Z" fill="#F7AA86"/>
<path d="M59.8499 19.2878H66.8476C68.6611 19.2878 70.1311 20.7579 70.1311 22.5714C70.1311 24.3849 68.6611 25.8549 66.8476 25.8549H59.8499C58.0364 25.8549 56.5664 24.3849 56.5664 22.5714C56.5664 20.7579 58.0366 19.2878 59.8499 19.2878Z" fill="#E88E6B"/>
<path d="M61.7879 25.855H68.7856C70.5991 25.855 72.0691 27.325 72.0691 29.1385C72.0691 30.952 70.5991 32.422 68.7856 32.422H61.7879C59.9744 32.422 58.5044 30.952 58.5044 29.1385C58.5042 27.3252 59.9744 25.855 61.7879 25.855Z" fill="#FFCCAA"/>
<path d="M77.9077 1.92379C78.4825 1.92379 79.0433 2.10193 79.5128 2.43363L86.3254 7.2483C87.9524 8.39819 88.9197 10.2663 88.9197 12.2586V14.8417C88.9197 17.8462 86.4842 20.2816 83.4798 20.2816H81.4739C76.4054 20.2816 72.2965 16.1728 72.2965 11.1042V10.5336C72.2965 9.82596 71.7229 9.25254 71.0154 9.25254C70.3077 9.25254 69.7341 9.82616 69.7341 10.5336V13.8669C69.7341 16.9794 67.2109 19.5026 64.0984 19.5026C63.0962 19.5026 62.2837 18.6901 62.2837 17.6879V6.05413C62.2837 3.77304 64.1329 1.92358 66.4142 1.92358H77.9077V1.92379Z" fill="#FFCCAA"/>
<path d="M8.83248 32.4362H1.52344V9.24341H8.83248C9.75528 9.24341 10.5034 9.99151 10.5034 10.9143V30.7653C10.5032 31.6881 9.75528 32.4362 8.83248 32.4362Z" fill="#2BB4F3"/>
<path d="M10.5032 25.693V30.7652C10.5032 31.688 9.75508 32.4361 8.83228 32.4361H1.52344V27.3639H8.83248C9.75528 27.3637 10.5032 26.6158 10.5032 25.693Z" fill="#1687C4"/>
<path d="M15.0808 12.7495V12.2587C15.0808 10.2665 16.0481 8.39815 17.6752 7.24847L24.4878 2.43379C24.9572 2.10209 25.518 1.92395 26.0929 1.92395H35.6893C37.9706 1.92395 39.8198 3.7732 39.8198 6.0545V6.15403H45.6038C47.4173 6.15403 48.8873 7.62404 48.8873 9.43754C48.8873 11.251 47.4173 12.7211 45.6038 12.7211H46.4112C48.2247 12.7211 49.6948 14.1911 49.6948 16.0046C49.6948 17.8181 48.2247 19.2881 46.4112 19.2881H44.1505C45.964 19.2881 47.434 20.7581 47.434 22.5716C47.434 24.3851 45.964 25.8551 44.1505 25.8551H42.2127C44.0261 25.8551 45.4962 27.3251 45.4962 29.1386C45.4962 30.9521 44.0261 32.4222 42.2127 32.4222H41.1347H35.215H17.6162C16.2159 32.4222 15.0806 31.2869 15.0806 29.8865C15.0806 29.3584 14.6524 28.9302 14.1243 28.9302H10.5034V12.7495H15.0808Z" fill="#D7875F"/>
<path d="M15.0808 25.1444C15.0808 26.5448 16.2161 27.68 17.6164 27.68H35.215H41.1347H42.2127C43.093 27.68 43.8907 27.3317 44.4803 26.7676C45.1052 27.3654 45.4962 28.2055 45.4962 29.1387C45.4962 30.9522 44.0262 32.4222 42.2127 32.4222H41.1347H35.215H17.6162C16.2159 32.4222 15.0806 31.2869 15.0806 29.8866C15.0806 29.3585 14.6524 28.9303 14.1243 28.9303H10.5034V24.1881H14.1243C14.6527 24.1881 15.0808 24.6163 15.0808 25.1444Z" fill="#B05A3D"/>
<path d="M102.477 30.9128H95.1677C95.0865 30.9128 95.0202 30.8466 95.0202 30.7653V10.9143C95.0202 10.8331 95.0865 10.7668 95.1677 10.7668H102.477C103.318 10.7668 104 10.0847 104 9.2434C104 8.40205 103.318 7.71996 102.477 7.71996H95.1677C93.4064 7.71996 91.9734 9.153 91.9734 10.9143V11.2257H90.3703C90.0851 9.13838 88.9482 7.23652 87.2046 6.00416L80.3922 1.18969C79.6616 0.673145 78.8025 0.400146 77.9078 0.400146H76.2291C75.3878 0.400146 74.7057 1.08224 74.7057 1.92358C74.7057 2.76493 75.3878 3.44702 76.2291 3.44702H77.9078C78.1692 3.44702 78.4201 3.52685 78.6335 3.67777L85.4461 8.49245C86.6673 9.35553 87.3963 10.7634 87.3963 12.2588V16.5478C87.3963 17.3891 88.0784 18.0712 88.9198 18.0712C89.7611 18.0712 90.4432 17.3891 90.4432 16.5478V14.2726H91.9736V27.4066H89.8769C88.5093 27.4066 87.3968 28.5194 87.3968 29.8868C87.3968 30.1565 87.2919 30.4094 87.0996 30.6012C86.9078 30.7929 86.6535 30.8984 86.3832 30.8984H73.2574C73.4727 30.353 73.5926 29.7596 73.5926 29.1385C73.5926 27.3073 72.5631 25.7126 71.0529 24.9013C71.4449 24.1971 71.6546 23.4012 71.6546 22.5723C71.6546 20.8999 70.7962 19.425 69.4978 18.5634C70.5132 17.3976 71.1585 15.9014 71.2479 14.2596C72.5979 18.6243 76.6716 21.8044 81.4738 21.8044C82.3152 21.8044 82.9973 21.1224 82.9973 20.281C82.9973 19.4397 82.3152 18.7576 81.4738 18.7576C77.2535 18.7576 73.8201 15.3241 73.8201 11.1038V10.533C73.8201 8.98624 72.5617 7.72788 71.0149 7.72788C70.2674 7.72788 69.5638 8.01977 69.0338 8.54972C68.5037 9.07968 68.2118 9.78412 68.2118 10.533V13.8663C68.2118 16.1344 66.3666 17.9796 64.0985 17.9796C64.0392 17.9796 63.9968 17.9632 63.9716 17.9495C63.9649 17.9459 63.9584 17.9424 63.9515 17.9388C63.934 17.9296 63.9173 17.9172 63.8905 17.89C63.8527 17.8526 63.8079 17.787 63.8079 17.6869V12.7205V6.05393C63.8079 4.61682 64.9768 3.44783 66.4139 3.44783H69.9057C70.747 3.44783 71.4291 2.76574 71.4291 1.9244C71.4291 1.08305 70.747 0.400959 69.9057 0.400959H66.4139C63.7886 0.400959 61.5757 2.20004 60.9428 4.63002H58.3966C57.1102 4.63002 55.9026 5.13113 54.9977 6.0391C54.0903 6.94646 53.5907 8.15343 53.5907 9.43799C53.5907 10.5066 53.9417 11.4946 54.5338 12.2937C54.416 12.3912 54.3022 12.4946 54.1929 12.6043C53.2831 13.5111 52.7822 14.7188 52.7822 16.005C52.7822 17.9365 53.9289 19.6046 55.5768 20.3675C55.2285 21.0405 55.043 21.7915 55.043 22.5721C55.043 24.4034 56.0735 25.9984 57.5849 26.8092C57.2008 27.4997 56.981 28.2937 56.981 29.1383C56.981 31.7889 59.1374 33.9452 61.788 33.9452H68.7856C68.7895 33.9452 68.7933 33.945 68.7974 33.945H86.3832C87.4672 33.945 88.4867 33.5225 89.2517 32.7578C89.8848 32.1273 90.2838 31.3241 90.4046 30.4533H91.9736V30.7651C91.9736 32.5264 93.4066 33.9594 95.1679 33.9594H102.477C103.318 33.9594 104 33.2774 104 32.436C104 31.5947 103.318 30.9128 102.477 30.9128ZM58.6085 21.3259C58.9391 20.994 59.3805 20.8112 59.851 20.8112H62.9214C63.295 20.9523 63.6949 21.0265 64.0985 21.0265C64.7002 21.0265 65.2846 20.9515 65.8432 20.8112H66.8488C67.8188 20.8112 68.6079 21.6013 68.6079 22.5723C68.6079 23.0415 68.4251 23.4821 68.0895 23.8164C67.7586 24.1483 67.3181 24.3311 66.8488 24.3311H59.8512C58.88 24.3311 58.0901 23.542 58.0901 22.5721C58.0899 22.1018 58.2727 21.6604 58.6085 21.3259ZM57.5902 17.7643C56.6191 17.7643 55.8291 16.9752 55.8291 16.0052C55.8291 15.5348 56.0119 15.0934 56.3475 14.7589C56.6782 14.4269 57.1196 14.2441 57.5902 14.2441H58.3966H60.761V17.6871C60.761 17.7129 60.7612 17.7385 60.7618 17.7643H59.851H57.5902ZM57.1539 8.19182C57.4848 7.85991 57.9262 7.6771 58.3966 7.6771H60.761V11.1973H58.3966C57.4267 11.1973 56.6375 10.4081 56.6375 9.43819C56.6375 8.96755 56.8204 8.52555 57.1539 8.19182ZM60.0279 29.1385C60.0279 28.168 60.8174 27.3784 61.788 27.3784H68.7856C69.7562 27.3784 70.5457 28.168 70.5457 29.1385C70.5457 30.107 69.7592 30.8951 68.7915 30.8984H62.8653C62.8633 30.8984 62.8615 30.8986 62.8595 30.8986H61.7878C60.8174 30.8986 60.0279 30.109 60.0279 29.1385Z" fill="black"/>
<path d="M49.466 12.2958C50.0591 11.4963 50.4103 10.5071 50.4103 9.43742C50.4103 6.78684 48.254 4.63047 45.6034 4.63047C44.0592 4.63047 42.7005 4.63047 41.1613 4.63047C40.5283 2.19987 38.3147 0.400391 35.6889 0.400391H26.0922C25.1977 0.400391 24.3386 0.673391 23.608 1.18973L16.7954 6.00441C15.0516 7.23697 13.912 9.13862 13.627 11.2263H12.0266V10.9145C12.0266 9.15325 10.5936 7.7202 8.83228 7.7202H1.52344C0.682094 7.7202 0 8.4023 0 9.24364C0 10.085 0.682094 10.7671 1.52344 10.7671H8.83249C8.91373 10.7671 8.97995 10.8333 8.97995 10.9145C8.97995 32.0085 9.06161 30.913 8.83249 30.913H1.52344C0.682094 30.913 0 31.5951 0 32.4365C0 33.2778 0.682094 33.9599 1.52344 33.9599H8.83249C10.5938 33.9599 12.0268 32.5268 12.0268 30.7655V30.4537H13.5968C13.8734 32.4243 15.5705 33.9457 17.6162 33.9457H22.1343C22.9757 33.9457 23.6578 33.2636 23.6578 32.4222C23.6578 31.5809 22.9757 30.8988 22.1343 30.8988H17.616C17.0578 30.8988 16.604 30.4448 16.604 29.8866C16.604 28.5194 15.4915 27.4069 14.1243 27.4069H12.0266V14.273H15.0804C15.9217 14.273 16.6038 13.5909 16.6038 12.7496V12.2586C16.6038 10.7632 17.3329 9.35536 18.554 8.49228L25.3667 3.67761C25.5801 3.52669 25.8312 3.44686 26.0924 3.44686H35.6891C36.6013 3.44686 37.4043 3.91872 37.8702 4.63006H33.2426C32.4013 4.63006 31.7192 5.31216 31.7192 6.1535C31.7192 6.99484 32.4013 7.67694 33.2426 7.67694C38.0339 7.67694 41.1066 7.67694 45.6036 7.67694C46.5741 7.67694 47.3637 8.46649 47.3637 9.43702C47.3637 10.4075 46.5741 11.1971 45.6036 11.1971C44.7622 11.1971 44.0802 11.8792 44.0802 12.7205C44.0802 13.5619 44.7622 14.244 45.6036 14.244H46.411C47.3815 14.244 48.1713 15.0335 48.1713 16.004C48.1713 16.9746 47.3817 17.7641 46.411 17.7641H44.1502C43.3089 17.7641 42.6268 18.4462 42.6268 19.2876C42.6268 20.1289 43.3089 20.811 44.1502 20.811C45.1208 20.811 45.9103 21.6005 45.9103 22.5711C45.9103 23.5416 45.1208 24.3314 44.1502 24.3314H42.2124C41.3711 24.3314 40.689 25.0135 40.689 25.8548C40.689 26.6961 41.3711 27.3782 42.2124 27.3782C43.183 27.3782 43.9725 28.1678 43.9725 29.1383C43.9725 30.1088 43.183 30.8984 42.2124 30.8984H28.457C27.6157 30.8984 26.9336 31.5805 26.9336 32.4218C26.9336 33.2632 27.6157 33.9453 28.457 33.9453H42.2124C44.863 33.9453 47.0194 31.7889 47.0194 29.1383C47.0194 28.2939 46.8006 27.4999 46.4167 26.8097C47.9275 25.9984 48.9572 24.4027 48.9572 22.5713C48.9572 21.7785 48.7642 21.0298 48.4228 20.3698C50.0715 19.6071 51.218 17.937 51.218 16.0042C51.218 14.5131 50.5353 13.1782 49.466 12.2958Z" fill="black"/>
</svg>
