<svg width="104" height="104" viewBox="0 0 104 104" fill="none" xmlns="http://www.w3.org/2000/svg">
<path d="M102.455 76.0951C102.455 87.1275 79.8658 96.0715 51.9999 96.0715C46.0769 96.0715 40.3931 95.6679 35.1127 94.9244C15.5525 92.1749 1.54443 84.7818 1.54443 76.0951C1.54443 68.2632 12.9267 61.4858 29.4989 58.2092L45.694 58.0897L72.7917 57.8878C90.2842 61.0247 102.455 67.9976 102.455 76.0951Z" fill="#533466"/>
<path d="M35.1127 94.9242C15.5525 92.1749 1.54443 84.7818 1.54443 76.0951C1.54443 68.2632 12.9267 61.4858 29.4989 58.2092L45.6941 58.0897L32.6622 75.9489C32.662 75.9489 22.0438 81.8533 35.1127 94.9242Z" fill="#925CB4"/>
<path d="M78.4716 76.0951C78.4716 81.8842 66.6197 86.5753 52 86.5753C45.1957 86.5753 38.9929 85.5601 34.3035 83.8898C28.916 81.9705 25.5283 79.1903 25.5283 76.0949L30.994 63.9444L28.5228 54.471L42.1149 40.8789V28.1107L68.4752 7.92859L61.4733 28.9346L65.5921 37.996L63.1209 49.5286L75.2714 60.0316L78.4716 76.0951Z" fill="#925CB4"/>
<path d="M68.4752 7.92883L51.1948 30.5411V38.8796L39.4562 57.1054L42.8543 65.4459L34.3035 83.8899C28.916 81.9705 25.5283 79.1904 25.5283 76.0949L30.994 63.9444L28.5228 54.4711L42.1149 40.879V28.1107L68.4752 7.92883Z" fill="#B27DD2"/>
<path d="M84.5073 89.7429C75.5064 92.8278 63.9618 94.5269 52 94.5269C38.713 94.5269 26.2444 92.4876 16.8913 88.7844C8.11992 85.3115 3.08913 80.6866 3.08913 76.0952C3.08913 70.3339 11.0608 64.5891 23.8928 61.1019C24.7158 60.8782 25.2019 60.0296 24.9783 59.2063C24.7548 58.3833 23.9064 57.8972 23.0827 58.1208C16.2752 59.9709 10.5865 62.4854 6.63203 65.3925C2.29328 68.5824 0 72.2833 0 76.0952C0 82.1079 5.59487 87.6343 15.754 91.6564C25.4605 95.4997 38.3329 97.6158 52 97.6158C64.2937 97.6158 76.194 95.8576 85.5087 92.6649C86.3157 92.3882 86.7455 91.5099 86.4691 90.7031C86.1926 89.8963 85.3141 89.4661 84.5073 89.7429Z" fill="black"/>
<path d="M89.1626 60.906C88.3751 60.578 87.471 60.9505 87.143 61.7382C86.8151 62.5257 87.1877 63.4299 87.9752 63.7579C96.1958 67.1808 100.911 71.6775 100.911 76.0951C100.911 80.1091 97.1115 84.136 90.2132 87.4341C89.4438 87.8022 89.1182 88.7244 89.486 89.4938C89.7513 90.0484 90.3044 90.3725 90.8805 90.3725C91.1039 90.3725 91.3308 90.324 91.5457 90.2212C99.6932 86.3259 104 81.4411 104 76.0951C104 70.2843 98.7306 64.8899 89.1626 60.906Z" fill="black"/>
<path d="M27.0281 54.8613L29.362 63.8075L27.5887 67.7499C27.2388 68.5277 27.5857 69.4422 28.3637 69.7922C29.1414 70.1419 30.0559 69.7952 30.4059 69.0172L32.4026 64.5781C32.5472 64.2566 32.5775 63.8956 32.4885 63.5546L30.2405 54.9376L39.0151 46.163C39.0155 46.1626 39.0157 46.1624 39.0162 46.162L47.5108 37.6673C48.1141 37.064 48.1141 36.0862 47.5108 35.4831C46.9076 34.8798 45.9297 34.8798 45.3266 35.4831L43.6594 37.1502V28.8734L65.4189 12.2141L60.0083 28.4463C59.885 28.8162 59.9061 29.219 60.0674 29.5738L63.9753 38.1711L62.9802 42.8147C62.98 42.8157 62.9796 42.8167 62.9794 42.8178L60.6786 53.5554C60.5001 54.3894 61.0314 55.2104 61.8655 55.3892C61.9744 55.4127 62.0834 55.4237 62.1907 55.4237C62.9032 55.4237 63.5439 54.9275 63.6995 54.2025L64.085 52.4034L73.8606 60.8538L76.9231 76.2302C76.7086 80.4215 66.5337 85.031 51.9997 85.031C37.6507 85.031 27.5502 80.5377 27.0895 76.3899L28.1813 73.9627C28.5312 73.1848 28.1843 72.2705 27.4063 71.9205C26.6284 71.5705 25.7141 71.9175 25.3641 72.6954L24.1198 75.4616C24.0302 75.6608 23.9839 75.8768 23.9839 76.0953C23.9839 79.5716 27.084 82.7133 32.7132 84.942C37.8894 86.9916 44.739 88.1201 51.9997 88.1201C59.2604 88.1201 66.11 86.9916 71.2862 84.942C76.9154 82.7133 80.0157 79.5716 80.0157 76.0953C80.0157 75.994 80.0056 75.893 79.9859 75.7937L76.7866 59.7306C76.7194 59.3934 76.5421 59.0885 76.2819 58.8638L64.8234 48.9586L65.3257 46.6144L67.1033 38.32C67.1725 37.9962 67.136 37.6588 66.9991 37.3572L63.1314 28.8478L69.9413 8.41733C70.1558 7.77383 69.9253 7.06533 69.373 6.67127C68.8205 6.27721 68.0758 6.2896 67.5369 6.70235L41.1766 26.8844C40.7947 27.1767 40.5709 27.6301 40.5709 28.1109V40.2395L27.4313 53.379C27.0427 53.7668 26.8898 54.3309 27.0281 54.8613Z" fill="black"/>
</svg>
