<svg width="104" height="104" viewBox="0 0 104 104" fill="none" xmlns="http://www.w3.org/2000/svg">
<g clip-path="url(#clip0_22_561)">
<path d="M58.8485 102.474H45.1519C44.5899 102.474 44.1343 102.018 44.1343 101.456V95.8928C44.1343 95.3307 44.5899 94.8751 45.1519 94.8751H58.8485C59.4105 94.8751 59.8661 95.3307 59.8661 95.8928V101.456C59.8663 102.018 59.4107 102.474 58.8485 102.474Z" fill="#FFDBA9"/>
<path d="M61.7529 80.0744H42.248C41.715 80.0744 41.2827 79.6424 41.2827 79.1092V73.1048C41.2827 72.5718 41.7148 72.1395 42.248 72.1395H61.7529C62.2859 72.1395 62.7181 72.5716 62.7181 73.1048V79.109C62.7179 79.6422 62.2859 80.0744 61.7529 80.0744Z" fill="#FFDBA9"/>
<path d="M61.7528 80.0745H57.3726V72.1398H61.7528C62.2858 72.1398 62.718 72.5718 62.718 73.105V79.1092C62.7178 79.6422 62.2858 80.0745 61.7528 80.0745Z" fill="#FFC473"/>
<path d="M58.8484 102.474H55.0532V94.8751H58.8486C59.4107 94.8751 59.8663 95.3307 59.8663 95.8928V101.456C59.8663 102.018 59.4107 102.474 58.8484 102.474Z" fill="#FFC473"/>
<path d="M59.3206 72.1398L63.9149 25.0084C63.9338 24.8136 63.8964 24.6176 63.8069 24.4437L52 1.52161V72.1396H59.3206V72.1398Z" fill="#5391EF"/>
<path d="M63.9152 25.008L59.3215 72.1396H54.6566L59.2502 25.008C59.2705 24.8146 59.2319 24.6172 59.1424 24.4443L52.0005 10.5798V1.52246L63.8073 24.4439C63.8967 24.6172 63.9335 24.8146 63.9152 25.008Z" fill="#2D5288"/>
<path d="M44.6796 72.1398L40.0853 25.0084C40.0665 24.8136 40.1038 24.6176 40.1934 24.4437L52.0001 1.52161V72.1396H44.6796V72.1398Z" fill="#5391EF"/>
<path d="M57.4913 80.0739H46.5098V94.8744H57.4913V80.0739Z" fill="#B76035"/>
<path d="M57.4912 80.0739H52.0005V94.8744H57.4912V80.0739Z" fill="#A04C27"/>
<path d="M65.1637 23.7446L53.357 0.822552C53.354 0.816458 53.3495 0.81138 53.3463 0.805489C53.3237 0.763239 53.2965 0.724239 53.2701 0.684223C53.2494 0.652739 53.2307 0.619833 53.2079 0.590176C53.1807 0.555036 53.1492 0.523754 53.1192 0.490848C53.0924 0.461801 53.0674 0.430723 53.0387 0.404114C53.006 0.373645 52.9693 0.347848 52.9341 0.320426C52.9037 0.29666 52.8748 0.270863 52.8425 0.249738C52.8056 0.22516 52.7651 0.20566 52.7257 0.184332C52.6912 0.165441 52.6577 0.144722 52.6217 0.128676C52.5848 0.112222 52.5451 0.100644 52.5066 0.0870349C52.4643 0.0722067 52.4231 0.0557536 52.3796 0.0445817C52.3727 0.0427535 52.3664 0.0395035 52.3595 0.0378785C52.3272 0.0301598 52.2947 0.0285348 52.2624 0.0230504C52.2173 0.0151285 52.1728 0.00619098 52.1269 0.0023316C52.0855 -0.00112153 52.0444 0.000300344 52.0032 0.000300344C51.9595 9.72187e-05 51.9161 -0.00132466 51.872 0.00253472C51.8289 0.00619098 51.7871 0.0149254 51.7446 0.0220348C51.7099 0.0279254 51.6752 0.0297535 51.6404 0.0380817C51.6329 0.0399098 51.6264 0.0433629 51.6189 0.0453942C51.5795 0.0555504 51.5419 0.0707849 51.5035 0.083988C51.4609 0.098613 51.4176 0.11141 51.377 0.129691C51.3457 0.143707 51.3166 0.162191 51.2864 0.178238C51.2425 0.201598 51.1976 0.223535 51.1566 0.250754C51.1279 0.269645 51.1026 0.292801 51.0751 0.313723C51.0363 0.343379 50.9965 0.371817 50.9608 0.404926C50.9333 0.430317 50.9096 0.459973 50.884 0.487598C50.8527 0.52152 50.82 0.55402 50.792 0.59038C50.7694 0.61963 50.7509 0.652333 50.7302 0.683614C50.7038 0.72363 50.6764 0.762833 50.6536 0.805489C50.6504 0.811583 50.6459 0.816458 50.6429 0.822552L38.8364 23.744C38.6118 24.1801 38.5181 24.6687 38.5658 25.1562L42.997 70.6128H42.2473C40.8736 70.6128 39.7556 71.7306 39.7556 73.1047V79.1087C39.7556 80.4826 40.8734 81.6006 42.2473 81.6006H44.983V82.5949C44.983 83.4379 45.6663 84.1214 46.5095 84.1214C47.3526 84.1214 48.036 83.4381 48.036 82.5949V81.6006H55.9642V93.3482H48.036V92.0931C48.036 91.2501 47.3526 90.5666 46.5095 90.5666C45.6663 90.5666 44.983 91.2501 44.983 92.0931V93.3567C43.659 93.4443 42.6074 94.5464 42.6074 95.8923V101.456C42.6074 102.859 43.7486 104 45.1516 104H58.8481C60.2509 104 61.3923 102.859 61.3923 101.456V95.8923C61.3923 94.5464 60.3411 93.4441 59.0167 93.3567V81.6006H61.7524C63.1262 81.6006 64.2442 80.4828 64.2442 79.1087V73.1047C64.2442 71.7308 63.1264 70.6128 61.7524 70.6128H61.0029L63.4832 45.1703C63.5649 44.3312 62.9513 43.5849 62.1122 43.5031C61.271 43.419 60.5266 44.035 60.4449 44.8741L57.9353 70.613H53.5264V7.8188L62.3809 25.0093L61.3575 35.5082C61.2759 36.3474 61.8895 37.0938 62.7286 37.1755C63.5659 37.2565 64.314 36.6433 64.3959 35.8044L65.4337 25.1572C65.4818 24.6689 65.3882 24.1803 65.1637 23.7446ZM58.3395 100.947H45.6604V96.4014H46.5093H57.4904H58.3393V100.947H58.3395ZM59.3204 73.6662H61.1912V78.5479H57.4904H46.5095H42.8087V73.6662H44.6795H52H59.3204ZM46.0644 70.6132L41.619 25.0093L50.4735 7.8188V70.613H46.0644V70.6132Z" fill="black"/>
</g>
<defs>
<clipPath id="clip0_22_561">
<rect width="104" height="104" fill="white"/>
</clipPath>
</defs>
</svg>
