<svg width="104" height="104" viewBox="0 0 104 104" fill="none" xmlns="http://www.w3.org/2000/svg">
<g clip-path="url(#clip0_22_638)">
<path d="M85.4534 24.0067L79.9466 18.5C79.2463 17.7996 78.1106 17.7996 77.4102 18.5L73.689 22.2213L81.7323 30.2646L85.4536 26.5434C86.1537 25.8428 86.1537 24.7073 85.4534 24.0067Z" fill="#EFEACE"/>
<path d="M8.31392 101.543L2.4107 95.6393C1.2407 94.4693 1.2407 92.5723 2.4107 91.4023L47.5315 46.2814L57.6717 56.4216L12.5509 101.543C11.3809 102.713 9.48392 102.713 8.31392 101.543Z" fill="#EFEACE"/>
<path d="M47.531 46.2815L43.34 50.4726C47.0352 54.1678 47.0352 60.159 43.34 63.854L6.98242 100.212L8.3133 101.543C9.4833 102.713 11.3803 102.713 12.5503 101.543L57.6711 56.4221L47.531 46.2815Z" fill="#D8D3B6"/>
<path d="M85.4531 24.0068L84.0609 22.6145C82.6051 24.0703 80.2447 24.0703 78.7892 22.6145L76.0421 19.8677L73.6885 22.2213L81.7318 30.2646L85.4531 26.5434C86.1534 25.8428 86.1534 24.7073 85.4531 24.0068Z" fill="#D8D3B6"/>
<path d="M30.8656 30.1014L73.8521 73.0879L99.4652 47.4747L56.4787 4.4882L30.8656 30.1014Z" fill="#B66140"/>
<path d="M78.3979 75.7156L73.8525 73.0874L99.4658 47.4744L102.157 51.8897C102.659 52.7119 102.532 53.7704 101.851 54.4515L80.918 75.3846C80.25 76.0528 79.2161 76.1885 78.3979 75.7156Z" fill="#7C381D"/>
<path d="M51.9335 1.85904L56.4788 4.48728L30.8658 30.1003L28.1742 25.685C27.6729 24.8627 27.7994 23.8043 28.4805 23.1232L49.4135 2.18993C50.0816 1.52185 51.1155 1.38596 51.9335 1.85904Z" fill="#CE886B"/>
<path d="M25.972 88.1215L15.8318 77.9813L2.4107 91.4024C1.2407 92.5724 1.2407 94.4694 2.4107 95.6394L8.31392 101.543C9.48392 102.713 11.3809 102.713 12.5509 101.543L25.972 88.1215Z" fill="#F5D4A6"/>
<path d="M10.4321 102.42C11.1989 102.42 11.9655 102.128 12.5505 101.543L18.9183 95.1748L25.9716 88.1215L22.5221 84.672L6.98242 100.212L7.77034 101L8.3135 101.543C8.8985 102.128 9.6653 102.42 10.4321 102.42Z" fill="#D1AE7E"/>
<path d="M103.468 51.0908L100.776 46.6754C100.714 46.5724 100.636 46.4747 100.551 46.389L84.1646 30.0025L86.5381 27.6288C87.1668 27.0001 87.5133 26.1643 87.5133 25.2752C87.5133 24.3861 87.167 23.5503 86.5383 22.9216L81.0316 17.4149C79.7336 16.1169 77.6219 16.1169 76.3242 17.4149L73.9506 19.7886L57.5642 3.40208C57.4709 3.30885 57.361 3.22476 57.2471 3.15874L52.7017 0.530099C51.2849 -0.289307 49.4863 -0.0534792 48.3279 1.10454L27.3946 22.0376C26.2088 23.2234 25.9904 25.0518 26.8632 26.4836L29.555 30.8989C29.6176 31.0019 29.6956 31.0996 29.7803 31.1853L45.1183 46.5233L44.1776 47.464C43.5782 48.0634 43.5782 49.0353 44.1778 49.6346C44.777 50.2342 45.749 50.234 46.3484 49.6346L47.2889 48.6939L55.2585 56.6635L25.9717 85.9507L18.0021 77.9813L41.3867 54.6203C41.9861 54.0208 41.9861 53.0489 41.3867 52.4497C40.787 51.8502 39.8153 51.8502 39.2159 52.4497L1.32493 90.3171C-0.441644 92.0836 -0.441644 94.9581 1.32493 96.7246L7.22815 102.628C8.08392 103.484 9.22182 103.955 10.432 103.955C11.6423 103.955 12.7802 103.484 13.6359 102.628L57.4291 58.8347L72.767 74.1727C72.8603 74.2659 72.9702 74.3502 73.0841 74.416L77.629 77.0443C78.1937 77.3707 78.8183 77.5295 79.4393 77.5295C80.3773 77.5295 81.3062 77.1665 82.0031 76.4698L102.936 55.5366C104.122 54.3509 104.341 52.5226 103.468 51.0908ZM11.4651 100.457C11.1893 100.733 10.8224 100.885 10.432 100.885C10.0416 100.885 9.67479 100.733 9.39895 100.457L3.49573 94.5538C3.21968 94.2778 3.06754 93.9109 3.06754 93.5207C3.06754 93.1305 3.21968 92.7637 3.49573 92.4876L15.8313 80.1521L23.8009 88.1215L11.4651 100.457ZM45.5985 42.6625L63.4111 40.5419L61.2905 58.3545L45.5985 42.6625ZM42.836 39.8998L33.0364 30.1002L56.4787 6.65777L66.2782 16.4573L63.7842 37.406L42.836 39.8998ZM69.0409 19.22L72.8649 23.0443V23.0445L74.1312 24.3108L84.7327 34.9123L66.9201 37.0329L69.0409 19.22ZM78.4952 19.5853C78.5577 19.5227 78.629 19.5095 78.678 19.5095C78.7269 19.5095 78.7982 19.5225 78.8608 19.5853L84.3675 25.092C84.4303 25.1545 84.4435 25.226 84.4435 25.275C84.4435 25.3239 84.4303 25.3952 84.3675 25.4578L81.994 27.8315L79.0576 24.8951L76.1212 21.9588L78.4952 19.5853ZM29.5656 24.2084L50.4984 3.27533C50.6047 3.1691 50.7463 3.11365 50.8895 3.11365C50.9839 3.11365 51.0792 3.13802 51.1653 3.18758L53.9798 4.81502L31.1601 27.6349L29.4846 24.886C29.3515 24.6677 29.3848 24.389 29.5656 24.2084ZM100.766 53.366L79.8329 74.299C79.6562 74.4753 79.3824 74.5117 79.1663 74.3866L76.3516 72.7589L91.9711 57.1396C92.5705 56.5402 92.5705 55.5682 91.9711 54.969C91.3717 54.3696 90.3999 54.3696 89.8003 54.969L73.853 70.9164L64.0534 61.1168L66.5471 40.1683L87.4956 37.6746L97.2952 47.4741L94.9591 49.8103C94.3596 50.4097 94.3596 51.3816 94.9593 51.9809C95.5585 52.5803 96.5304 52.5803 97.1299 51.9809L99.1713 49.9394L100.847 52.6883C100.98 52.9067 100.947 53.1854 100.766 53.366Z" fill="black"/>
</g>
<defs>
<clipPath id="clip0_22_638">
<rect width="104" height="104" fill="white"/>
</clipPath>
</defs>
</svg>
